<?xml version="1.0" encoding="UTF-8" standalone="no"?>
<svg width="111px" height="111px" viewBox="0 0 111 111" version="1.1" xmlns="http://www.w3.org/2000/svg" xmlns:xlink="http://www.w3.org/1999/xlink">
    <!-- Generator: Sketch 39.1 (31720) - http://www.bohemiancoding.com/sketch -->
    <title>Group 2</title>
    <desc>Created with Sketch.</desc>
    <defs></defs>
    <g id="Page-1" stroke="none" stroke-width="1" fill="none" fill-rule="evenodd">
        <g id="Desktop-HD" transform="translate(-892.000000, -214.000000)">
            <g id="One-Copy" transform="translate(770.000000, 215.000000)">
                <g id="Group-2" transform="translate(123.000000, 0.000000)">
                    <circle id="Oval" stroke="#1C221F" stroke-width="2" fill="#1C221F" cx="54.5" cy="54.5" r="54.5"></circle>
                    <g id="noun_31689_cc" transform="translate(16.000000, 18.000000)" fill="#FFFFFF">
                        <g id="Group">
                            <path d="M48.706,58.9810213 L16.2704516,58.9557447 C13.5358065,58.9557447 11.3172473,61.1800851 11.3172473,63.9245106 C11.3172473,66.6689362 13.5358065,68.8932766 16.2704516,68.8932766 L48.706,68.8932766 C48.7899785,68.8725957 48.8693763,68.8932766 48.9548817,68.8932766 C51.6895269,68.8932766 53.908086,66.6689362 53.908086,63.9245106 C53.908086,61.1800851 51.6895269,58.9557447 48.9548817,58.9557447 C48.8693763,58.9557447 48.7899785,58.9764255 48.706,58.9810213 Z" id="Shape"></path>
                            <path d="M50.0702688,56.2457872 L50.0702688,56.2151489 L15.8184946,56.2151489 C11.5821613,56.2151489 8.13446237,59.6734468 8.13446237,63.9245106 C8.13446237,68.1755745 11.5821613,71.6331064 15.8184946,71.6331064 L49.519828,71.6331064 L50.0710323,71.6300426 L50.0710323,71.6024681 C53.9890108,71.2608511 57.090871,67.9251064 57.090871,63.9245106 C57.0901075,59.9231489 53.9890108,56.5874043 50.0702688,56.2457872 L50.0702688,56.2457872 Z M49.5121935,70.5262979 L49.3266774,70.5285957 L15.8184946,70.5285957 C12.1890968,70.5285957 9.23534409,67.5658723 9.23534409,63.9245106 C9.23534409,60.282383 12.1890968,57.3188936 15.8184946,57.3188936 L49.3274409,57.3188936 L49.512957,57.3219574 C53.0850968,57.3778723 55.9915161,60.3398298 55.9915161,63.9245106 C55.9907527,67.5084255 53.0843333,70.470383 49.5121935,70.5262979 L49.5121935,70.5262979 Z" id="Shape"></path>
                            <rect id="Rectangle-path" x="25.2752366" y="53.7097021" width="12.8639785" height="1.31131915"></rect>
                            <path d="M67.3370108,37.1849362 L67.0988172,32.507234 L69.5067097,2.50008511 L64.5107527,0.648 L47.4906022,5.52178723 L47.4623548,5.50187234 L36.3504731,9.12561702 L22.326828,27.5208511 C21.7634086,27.6051064 21.1121935,27.9229787 20.7709355,28.3189787 L20.4243333,28.7211064 C20.0273441,29.1799149 19.6334086,30.0477447 19.5486667,30.6490213 L18.4951183,38.1515745 L5.89834409,38.1515745 C5.29217204,38.1515745 4.44780645,38.5031489 4.01951613,38.9328511 L1.32762366,41.633617 C0.898569892,42.0633191 0.548913978,42.911234 0.548913978,43.5194043 L0.548913978,47.339234 C0.548913978,47.9466383 0.898569892,48.7945532 1.32762366,49.2242553 L4.01951613,51.9257872 C4.44780645,52.3554894 5.29217204,52.7062979 5.89834409,52.7062979 L41.9220645,52.7062979 C42.5267097,52.7062979 43.3726022,52.3554894 43.7993656,51.9257872 L46.4927849,49.2242553 C46.9203118,48.7945532 47.2714946,47.9466383 47.2714946,47.339234 L47.2714946,43.5194043 C47.2714946,42.911234 46.9203118,42.0633191 46.4927849,41.633617 L43.7993656,38.9328511 C43.3726022,38.5031489 42.5267097,38.1515745 41.9220645,38.1515745 L40.4211398,38.1515745 C40.4677097,37.9868936 40.4539677,37.7946383 40.3257097,37.5794043 L35.9504301,30.2277447 C35.6397097,29.7061277 34.9655914,29.0182979 34.4495054,28.6981277 L33.4326022,28.0662128 C32.918043,27.7468085 32.0011505,27.485617 31.3957419,27.485617 L30.9155376,27.485617 L38.2751075,12.7164255 L61.937957,8.64459574 L63.2449677,39.2874894 L63.3098602,39.2874894 C62.8441613,40.4839149 62.1471398,41.6428085 61.2012366,42.678383 C58.2230538,45.936766 53.8447204,46.9455319 50.6069677,45.3791489 C51.3345269,49.9228085 55.4471828,53.4025532 60.4110753,53.4025532 C65.8895269,53.4025532 70.3312258,49.1645106 70.3312258,43.9360851 C70.3319892,41.2835745 69.1769032,38.9029787 67.3370108,37.1849362 L67.3370108,37.1849362 Z M32.7493226,30.3326809 L36.7039462,37.1305532 C37.0085591,37.6544681 36.7634946,38.0841702 36.1588495,38.0841702 L22.1794839,38.0841702 C21.5748387,38.0841702 21.1434946,37.5908936 21.2213656,36.9888511 L22.0664946,30.4751489 C22.1443656,29.8723404 22.7039677,29.3798298 23.3101398,29.3798298 L31.0926559,29.3798298 C31.6980645,29.3790638 32.4431828,29.808 32.7493226,30.3326809 L32.7493226,30.3326809 Z M49.3472903,6.86068085 L48.6014086,6.32221277 L64.5168602,1.86434043 L64.5275484,4.21506383 L49.3472903,6.86068085 L49.3472903,6.86068085 Z M62.4807634,51.551234 C60.0560753,52.1111489 59.4613548,51.3605106 61.4470645,50.9017021 C65.7116452,49.9159149 68.4119355,45.8172766 67.4767204,41.7469787 C67.0728602,39.9906383 68.0118925,40.2211915 68.5119462,42.3957447 C69.4456344,46.4668085 66.746871,50.5654468 62.4807634,51.551234 L62.4807634,51.551234 Z" id="Shape"></path>
                        </g>
                    </g>
                </g>
            </g>
        </g>
    </g>
</svg>