<?xml version="1.0" encoding="UTF-8" standalone="no"?>
<svg width="111px" height="111px" viewBox="0 0 111 111" version="1.1" xmlns="http://www.w3.org/2000/svg" xmlns:xlink="http://www.w3.org/1999/xlink">
    <!-- Generator: Sketch 39.1 (31720) - http://www.bohemiancoding.com/sketch -->
    <title>Group 3</title>
    <desc>Created with Sketch.</desc>
    <defs></defs>
    <g id="Page-1" stroke="none" stroke-width="1" fill="none" fill-rule="evenodd">
        <g id="Desktop-HD" transform="translate(-1062.000000, -214.000000)">
            <g id="One-Copy" transform="translate(940.000000, 215.000000)">
                <g id="Group-3" transform="translate(123.000000, 0.000000)">
                    <circle id="Oval" stroke="#1C221F" stroke-width="2" fill="#1C221F" cx="54.5" cy="54.5" r="54.5"></circle>
                    <g id="noun_79733_cc" transform="translate(26.000000, 16.000000)" fill="#FFFFFF">
                        <path d="M45.9606061,0.611494253 L44.1151515,4.54252874 L48.069697,6.37701149 L29.6151515,45.0758621 L21.7060606,41.3195402 L13.6212121,58.354023 L18.1030303,64.2942529 C17.7515152,64.2942529 17.4,64.3816092 16.9606061,64.4689655 C16.0818182,62.4597701 14.1484848,61.1494253 11.8636364,61.1494253 C9.22727273,61.1494253 7.03030303,62.983908 6.5030303,65.5172414 C6.15151515,65.4298851 5.88787879,65.4298851 5.53636364,65.4298851 C2.98787879,65.4298851 0.878787879,67.1770115 0.263636364,69.4482759 C0.527272727,69.6229885 0.790909091,69.8850575 0.966666667,70.1471264 C1.75757576,69.1862069 2.9,68.5747126 4.13030303,68.5747126 C5.00909091,68.5747126 5.8,68.8367816 6.41515152,69.2735632 C6.5030303,67.3517241 7.9969697,65.7793103 9.84242424,65.5172414 C10.5454545,64.8183908 11.6,64.3816092 12.6545455,64.3816092 C14.7636364,64.3816092 16.5212121,66.0413793 16.7848485,68.0505747 C16.9606061,68.137931 17.1363636,68.2252874 17.3121212,68.4 C17.8393939,66.7402299 19.4212121,65.4298851 21.2666667,65.4298851 C22.6727273,65.4298851 23.9030303,66.1287356 24.6939394,67.1770115 C25.7484848,67.8758621 26.4515152,69.1862069 26.4515152,70.583908 L26.4515152,70.845977 C26.5393939,70.845977 26.7151515,70.9333333 26.8030303,70.9333333 C27.5939394,70.1471264 28.6484848,69.6229885 29.7909091,69.6229885 C32.0757576,69.6229885 33.9212121,71.4574713 33.9212121,73.7287356 L33.9212121,74.1655172 C34.3606061,74.6896552 34.7121212,75.2137931 34.8878788,75.9126437 C35.4151515,75.0390805 35.6787879,74.0781609 35.6787879,73.0298851 C35.6787879,70.6712644 34.1848485,68.662069 32.0757576,67.8758621 L33.569697,67.7885057 L41.6545455,50.754023 L32.9545455,46.6482759 L51.4090909,7.94942529 L55.3636364,9.78390805 L57.2090909,5.85287356 L45.9606061,0.611494253 L45.9606061,0.611494253 Z" id="Shape"></path>
                    </g>
                </g>
            </g>
        </g>
    </g>
</svg>