<?xml version="1.0" encoding="UTF-8" standalone="no"?>
<svg width="111px" height="111px" viewBox="0 0 111 111" version="1.1" xmlns="http://www.w3.org/2000/svg" xmlns:xlink="http://www.w3.org/1999/xlink">
    <!-- Generator: Sketch 39.1 (31720) - http://www.bohemiancoding.com/sketch -->
    <title>pipe</title>
    <desc>Created with Sketch.</desc>
    <defs></defs>
    <g id="Page-1" stroke="none" stroke-width="1" fill="none" fill-rule="evenodd">
        <g id="Desktop-HD" transform="translate(-488.000000, -214.000000)">
            <g id="One" transform="translate(366.000000, 215.000000)">
                <g id="pipe" transform="translate(123.000000, 0.000000)">
                    <circle id="Oval" stroke="#1C221F" stroke-width="2" fill="#1C221F" cx="54.5" cy="54.5" r="54.5"></circle>
                    <path d="M63,46.6806205 L63,35.3403103 C63,30.6431538 59.4195556,26.8350776 55,26.8350776 L28.3333333,26.8350776 L28.3333333,24 L23,24 L23,26.8350776 L23,43.845543 L23,46.6806205 L28.3333333,46.6806205 L28.3333333,43.845543 L47,43.845543 L47,46.6806205 L44.3333333,46.6806205 L44.3333333,52.3507757 L65.6666667,52.3507757 L65.6666667,46.6806205 L63,46.6806205 L63,46.6806205 Z" id="Shape" fill="#FFFFFF"></path>
                    <path d="M82.3333333,64.1434241 L82.3333333,66.5052327 L63.6666667,66.5052327 L63.6666667,63.6701551 L66.3333333,63.6701551 L66.3333333,58 L45,58 L45,63.6701551 L47.6666667,63.6701551 L47.6666667,75.0104654 C47.6666667,79.7091339 51.2485333,83.5156981 55.6666667,83.5156981 L82.3333333,83.5156981 L82.3333333,85.8775067 L87.6666667,85.8775067 L87.6666667,83.5156981 L87.6666667,66.5052327 L87.6666667,64.1434241 L82.3333333,64.1434241 L82.3333333,64.1434241 Z" id="Shape" fill="#FFFFFF"></path>
                </g>
            </g>
        </g>
    </g>
</svg>