<?xml version="1.0" encoding="UTF-8" standalone="no"?>
<svg width="111px" height="111px" viewBox="0 0 111 111" version="1.1" xmlns="http://www.w3.org/2000/svg" xmlns:xlink="http://www.w3.org/1999/xlink">
    <!-- Generator: Sketch 39.1 (31720) - http://www.bohemiancoding.com/sketch -->
    <title>icon-demo</title>
    <desc>Created with Sketch.</desc>
    <defs></defs>
    <g id="Page-1" stroke="none" stroke-width="1" fill="none" fill-rule="evenodd">
        <g id="icon-demo" transform="translate(1.000000, 1.000000)">
            <g id="Page-1">
                <g id="Desktop-HD">
                    <g id="One">
                        <g id="pipe">
                            <circle id="Oval" stroke="#1C221F" stroke-width="2" fill="#1C221F" cx="54.5" cy="54.5" r="54.5"></circle>
                            <path d="M65.3326533,84.5421232 C65.0991532,84.5421232 64.8623293,84.4858004 64.6446175,84.3666245 C63.951596,83.9935876 63.6998148,83.1389496 64.0812259,82.4598103 C65.7846961,79.4216414 64.7368542,75.7247401 61.6980295,74.0432173 C59.9023227,73.0489966 57.8714538,72.7706474 56.1256046,73.2816344 C54.7744619,73.6742619 53.7399154,74.48727 53.1349757,75.6276036 C52.7128475,76.4226537 52.5350218,77.3107589 52.6048225,78.2666149 C52.6621589,79.0396256 52.0688526,79.7122347 51.2819325,79.7685575 C50.4941814,79.8305943 49.8094695,79.2420613 49.7529641,78.4674181 C49.6457702,77.0054728 49.9382685,75.5737296 50.5988825,74.328913 C51.5569806,72.5225004 53.2313672,71.1936076 55.3112627,70.5871166 C57.7974983,69.8630823 60.6360613,70.2287727 63.1023537,71.5943977 C67.5247286,74.0415848 69.0561898,79.4085811 66.5857425,83.8131912 C66.3256517,84.2800995 65.8362157,84.5421232 65.3326533,84.5421232 L65.3326533,84.5421232 L65.3326533,84.5421232 Z" id="Shape" fill="#FFFFFF"></path>
                            <path d="M93.5462009,68.7455037 C92.0230493,67.583947 90.065305,66.9799048 88.0909415,67.0272486 C88.5454772,64.8429016 88.229712,63.0666911 87.1461388,61.7263705 C85.7667434,60.0195432 83.53312,59.5305956 81.8545787,59.4261126 C83.214031,54.4288881 81.549616,50.2471205 76.9726824,47.2505816 C74.7581711,45.8016967 71.6761365,45.4286598 68.5176535,46.2228936 C66.3139447,46.7787757 64.3703268,47.8497261 63.064056,49.1704562 L55.8787356,36.041518 L48.7175131,22.8791127 L38.7974998,28.087752 L36.7716168,24.3647299 L24.4999837,30.8075743 L26.5258668,34.5305964 L16.7770315,39.6486293 L23.938254,52.8110346 L28.2193654,60.6807245 C27.6036233,60.6635828 26.9563046,60.7190894 26.2707617,60.8880579 C22.5339298,61.805549 20.5770165,64.5490432 20.8379382,68.3651204 C16.9748002,69.0067111 14.0847176,71.9477435 14.0024525,75.5924033 C13.9442852,78.229782 14.9231573,80.6761528 16.6897806,82.3013527 C18.0758236,83.5763714 19.8141942,84.2604084 21.6398157,84.2604084 C21.8475559,84.2604084 22.0577891,84.2506131 22.2688532,84.2334714 C23.6873037,84.1118467 24.8897044,83.7396261 25.8444787,83.1257886 C26.5050927,82.7013266 26.6903971,81.8295468 26.2574663,81.1814259 C25.8253666,80.5324887 24.9387311,80.3496435 24.2781171,80.7757381 C23.7305137,81.1275519 22.9494103,81.3552921 22.0195649,81.4352868 C20.7880806,81.5332396 19.5890037,81.1202054 18.644201,80.2508744 C17.4526028,79.1546195 16.8202415,77.5220731 16.8609585,75.6544401 C16.9266045,72.7648329 19.7410696,71.0449453 22.4317216,71.0449453 L22.4549885,71.0449453 C22.8837644,71.0449453 23.2892734,70.8563862 23.5609977,70.5306932 C23.8343839,70.2033676 23.9415778,69.7731917 23.8559888,69.3593412 C23.4064389,67.1962172 23.5792788,64.4445602 26.9629523,63.6144104 C28.1021999,63.3344287 29.1093247,63.5344156 30.0183961,63.9890798 L34.3443795,71.9395807 C33.6314149,72.316699 32.9608293,72.8268697 32.3467491,73.4807045 C28.4187961,77.6510443 30.5518731,82.3046178 32.6816264,83.8865553 C32.988251,84.1134792 33.3139877,84.2783664 33.6696391,84.2783664 C34.0435716,84.2783664 34.4158421,84.1347023 34.6975379,83.8506392 C35.2459722,83.2955735 35.2318459,82.406652 34.6684543,81.8662791 C34.2953528,81.5079352 31.4975068,78.519559 34.4449258,75.3867025 C35.3049705,74.474109 36.2481113,74.0112821 37.3258678,73.9753661 C39.8378631,73.8814947 42.2351858,76.0870649 42.2559598,76.1050229 C42.7030169,76.523771 43.3736025,76.6143773 43.9203748,76.3262329 C44.4646543,76.0380885 44.7862363,75.43323 44.6499587,74.8397994 C43.7076488,70.7445568 44.3383483,67.7014903 47.1320394,65.9391565 C50.3004939,63.9409197 54.5716338,65.7163139 55.5970398,66.6958417 C55.9585079,67.0411253 56.4761966,67.1741778 56.9631398,67.0476555 C57.450083,66.9211331 57.8314941,66.5521776 57.9702646,66.0762904 C58.9333485,62.7605886 61.0672565,60.0464802 63.5352109,58.9926715 C65.3433822,58.2204771 67.2496069,58.3298577 69.2031964,59.3118344 C73.9654343,61.7075962 72.819539,66.8182827 71.7126988,69.651567 C71.6296027,69.8654305 71.5639568,70.0343991 71.5556472,70.2809136 C71.5415208,70.6612969 71.6852771,71.0327012 71.9553394,71.3061527 C72.2237399,71.5812368 72.5960104,71.7346962 72.9840692,71.7346962 C76.5430755,71.7346962 78.753432,73.7745629 78.753432,77.0576137 C78.753432,79.4664359 77.7562787,80.3218902 76.8222784,80.9349114 C76.1666501,81.3659036 75.9888245,82.2368671 76.4275719,82.8841718 C76.8654884,83.5282113 77.7537858,83.7037101 78.411076,83.2719015 C79.7854856,82.3707359 81.612769,80.7447197 81.612769,77.05843 C81.612769,72.9044157 78.9428911,69.8376773 74.9185466,69.0981337 C76.5455684,63.574413 74.953447,59.0489944 70.5061433,56.8124058 C69.2272942,56.1691826 67.9276711,55.8092061 66.6413434,55.7128858 L64.5331952,51.8592601 C65.2926936,50.6152597 67.0992029,49.4830888 69.2272942,48.945981 C71.6005191,48.348469 73.8457759,48.5827395 75.3838848,49.5908369 C79.3965958,52.2184203 80.4228327,55.7398229 78.5232557,60.3558478 C78.3329657,60.8186747 78.4085831,61.3468034 78.7193626,61.7410634 C79.030142,62.1369559 79.5328734,62.3361266 80.0380978,62.2740898 C81.0194628,62.1475675 83.811492,62.1157328 84.9083606,63.4813579 C85.8473466,64.6494448 85.3379675,66.7195136 84.7438303,68.2508422 C84.5502164,68.7528502 84.6623961,69.3193438 85.0354976,69.7103386 C85.4085992,70.1013335 85.9761456,70.2498952 86.4979891,70.0948033 C88.3069914,69.5519816 90.385225,69.8956326 91.7920421,70.9673994 C92.5930886,71.5779717 93.5295817,72.7019799 93.4414998,74.5892035 C93.3650514,76.2372591 92.6861562,77.7106322 91.5302894,78.7383202 C90.5381219,79.6223441 89.2625966,80.0892523 88.0477315,80.0288481 C87.1303505,79.9798717 86.329304,79.7651919 85.6645352,79.3872574 C84.9798233,78.9978951 84.1056522,79.2297167 83.7117767,79.9006932 C83.3145773,80.5724861 83.5505702,81.4320218 84.2344512,81.8197515 C85.2914337,82.4205286 86.5254108,82.7625471 87.8948347,82.8335628 C88.016986,82.840093 88.1416301,82.8433581 88.2654433,82.8433581 C90.1209794,82.8433581 91.9914728,82.1176912 93.4498094,80.8214494 C95.1748846,79.2860395 96.1869952,77.1180179 96.297513,74.7173584 C96.4105237,72.3036386 95.4333135,70.1845934 93.5462009,68.7455037 L93.5462009,68.7455037 Z M46.7207137,30.0794586 L49.4687019,35.1321897 L44.3250529,37.8324214 L41.5762337,32.7796903 L46.7207137,30.0794586 L46.7207137,30.0794586 Z M45.2299695,48.1297078 L40.0863205,50.8307558 L37.3350084,45.7747597 L42.4794883,43.0737116 L45.2299695,48.1297078 L45.2299695,48.1297078 Z M37.9224978,34.6979324 L40.6713171,39.7498472 L35.5268371,42.4508952 L32.7780179,37.3981641 L37.9224978,34.6979324 L37.9224978,34.6979324 Z M26.7294522,47.0701852 L23.980633,42.0174541 L29.124282,39.3172224 L31.8731012,44.3691372 L26.7294522,47.0701852 L26.7294522,47.0701852 Z M28.5384545,50.3940497 L33.6821035,47.6938179 L36.4300918,52.7457328 L31.2881047,55.4459645 L28.5384545,50.3940497 L28.5384545,50.3940497 Z M35.8442642,63.8217438 L33.095445,58.769829 L38.239094,56.0695972 L40.9887442,61.1206958 L35.8442642,63.8217438 L35.8442642,63.8217438 Z M44.6416491,59.2040863 L42.6888905,55.6141168 L41.8928298,54.1513552 L41.8928298,54.1489064 L47.0356479,51.4486747 L47.0364789,51.4511235 L47.8325396,52.913885 L49.7852981,56.5030383 L44.6416491,59.2040863 L44.6416491,59.2040863 Z M48.8820434,46.2073844 L46.1332242,41.1562859 L51.2768732,38.4552379 L54.0265234,43.507969 L48.8820434,46.2073844 L48.8820434,46.2073844 Z M53.4390339,54.5831637 L50.6910456,49.5312489 L55.8338637,46.8310172 L58.5835139,51.8821157 L53.4390339,54.5831637 L53.4390339,54.5831637 Z" id="Shape" fill="#FFFFFF"></path>
                        </g>
                    </g>
                </g>
            </g>
        </g>
    </g>
</svg>