<?xml version="1.0" encoding="UTF-8" standalone="no"?>
<svg width="111px" height="111px" viewBox="0 0 111 111" version="1.1" xmlns="http://www.w3.org/2000/svg" xmlns:xlink="http://www.w3.org/1999/xlink">
    <!-- Generator: Sketch 39.1 (31720) - http://www.bohemiancoding.com/sketch -->
    <title>icon-grading</title>
    <desc>Created with Sketch.</desc>
    <defs></defs>
    <g id="Page-1" stroke="none" stroke-width="1" fill="none" fill-rule="evenodd">
        <g id="icon-grading" transform="translate(1.000000, 1.000000)">
            <g id="Page-1">
                <g id="Desktop-HD">
                    <g id="One">
                        <g id="pipe">
                            <circle id="Oval" stroke="#1C221F" stroke-width="2" fill="#1C221F" cx="54.5" cy="54.5" r="54.5"></circle>
                            <g id="Group" transform="translate(14.000000, 27.000000)" fill="#FFFFFF">
                                <g transform="translate(41.000000, 28.000000) scale(1, -1) translate(-41.000000, -28.000000) " id="Shape">
                                    <g>
                                        <g>
                                            <path d="M0.888494118,0.0202758621 L0.888494118,12.3093793 L14.5101412,12.3093793 C11.8504471,13.2575172 9.94611765,15.7997241 9.94611765,18.7851034 C9.94611765,22.5805517 13.0244941,25.6557241 16.8186824,25.6557241 C20.6138353,25.6557241 23.6922118,22.5805517 23.6922118,18.7851034 C23.6922118,15.7997241 21.7869176,13.2575172 19.1262588,12.3093793 L35.3101647,12.3093793 C32.6495059,13.2575172 30.7451765,15.7997241 30.7451765,18.7851034 C30.7451765,22.5805517 33.8235529,25.6557241 37.6187059,25.6557241 C41.4128941,25.6557241 44.4912706,22.5805517 44.4912706,18.7851034 C44.4912706,15.7997241 42.5859765,13.2575172 39.9262824,12.3093793 L55.4715529,12.3093793 L60.4262824,6.29517241 L66.9911059,5.60193103 L67.9201176,5.88386207 L66.5193647,6.54813793 L68.6253176,7.66427586 L68.7922118,6.14841379 L72.3162824,7.21917241 L75.1640941,12.3093793 L81.9237882,12.3093793 L81.9237882,0.0202758621 L0.888494118,0.0202758621 L0.888494118,0.0202758621 Z M67.486,10.5424828 L67.1136235,13.02 L70.5807765,12.6482759 L70.5807765,10.5424828 L67.486,10.5424828 L67.486,10.5424828 Z M70.5817412,14.9085517 L65.0182824,15.2107586 L65.0790588,18.0831724 L61.8588706,20.6862069 L59.2580235,20.3144828 L49.4739765,28.9915862 L51.5789647,32.8333793 L51.9513412,37.1724138 L58.0193412,36.0562759 L60.9761647,37.2718621 L63.7168941,35.8091034 L63.4689647,31.470069 L67.6799059,30.4784828 L70.8846588,26.9504828 L70.6830353,22.902069 L71.4914588,18.956 L70.5817412,14.9085517 L70.5817412,14.9085517 Z M45.9701647,17.7983448 L45.9692,18.844 L45.9392941,18.844 C45.9180706,21.8535172 44.2973647,24.4826207 41.8865647,25.9251034 L41.8856,29.1624828 L18.9120941,37.378069 L18.9120941,41.8426207 L47.3072471,31.6892414 L47.3072471,28.5484138 L47.9642118,28.5484138 L58.8943294,18.8942069 L61.4459765,19.2157241 L63.6011294,17.5395862 L48.7099294,15.6703448 C47.3670588,15.5004138 46.1380235,16.4562759 45.9701647,17.7983448 L45.9701647,17.7983448 Z M19.9144235,18.7841379 C19.9144235,20.4921379 18.5271765,21.8786207 16.8186824,21.8786207 C15.1101882,21.8786207 13.7219765,20.4921379 13.7219765,18.7841379 C13.7219765,17.0742069 15.1101882,15.6886897 16.8186824,15.6886897 C18.5271765,15.6886897 19.9144235,17.0742069 19.9144235,18.7841379 L19.9144235,18.7841379 Z M40.7144471,18.7841379 C40.7144471,20.4921379 39.3272,21.8786207 37.6187059,21.8786207 C35.9102118,21.8786207 34.522,20.4921379 34.522,18.7841379 C34.522,17.0742069 35.9102118,15.6886897 37.6187059,15.6886897 C39.3272,15.6886897 40.7144471,17.0742069 40.7144471,18.7841379 L40.7144471,18.7841379 Z M25.1392706,18.7851034 C25.1392706,22.6114483 22.5519294,25.8343448 19.0336471,26.8037241 L18.9120941,26.9224828 L18.9120941,35.9085517 L40.6420941,28.138069 L40.6420941,26.5343448 C39.7044,26.9002759 38.6847059,27.1011034 37.6187059,27.1011034 C33.0257412,27.1011034 29.2981176,23.3790345 29.2981176,18.7851034 C29.2981176,17.8977931 29.438,17.0442759 29.6946118,16.2428966 L24.7437412,16.2428966 C25.0003529,17.0433103 25.1392706,17.8977931 25.1392706,18.7851034 L25.1392706,18.7851034 Z M73.5530353,17.8350345 L74.9152,21.1815172 L75.7824706,18.0831724 L73.5530353,17.8350345 L73.5530353,17.8350345 Z M8.84442353,21.1631724 L4.71934118,22.0417931 L2.33555294,24.4256552 L3.5096,34.8136552 L6.46931765,37.7748966 L7.298,45.8321379 L9.78211765,45.8321379 L17.2151765,43.174069 L17.2151765,27.0924138 C17.0839765,27.0982069 16.9518118,27.102069 16.8186824,27.102069 C13.0515059,27.102069 9.86797647,24.5975172 8.84442353,21.1631724 L8.84442353,21.1631724 Z M43.9857647,34.3482759 L41.5035765,35.2355862 L39.6667765,42.1428966 L33.4588941,42.1428966 L34.4853412,37.7449655 L32.8646353,38.3242759 L31.9732471,42.1428966 L27.9128,42.1428966 L28.4347059,39.9086897 L26.8130353,40.4889655 L26.4261882,42.1428966 L22.1872706,42.1428966 L19.024,43.2735172 L21.3036,54.8809655 C21.4029647,55.3897931 21.8496235,55.7576552 22.3676706,55.7576552 L39.5095294,55.7576552 C40.2475294,55.7576552 40.7713647,55.0344828 40.5417647,54.3325517 L39.5095294,51.1811034 L43.9857647,34.3482759 L43.9857647,34.3482759 Z M11.1761176,42.2336552 C11.1761176,42.7666207 10.7439294,43.1991724 10.2114118,43.1991724 C9.67889412,43.1991724 9.24670588,42.7666207 9.24670588,42.2336552 C9.24670588,41.7006897 9.67889412,41.2681379 10.2114118,41.2681379 C10.7439294,41.2681379 11.1761176,41.7006897 11.1761176,42.2336552 L11.1761176,42.2336552 Z M26.0885412,43.5911724 L25.0756,47.936 L22.1515765,47.936 L21.2978118,43.5911724 L26.0885412,43.5911724 L26.0885412,43.5911724 Z M31.6346353,43.5911724 L30.6207294,47.936 L26.5612471,47.936 L27.5741882,43.5911724 L31.6346353,43.5911724 L31.6346353,43.5911724 Z M39.2818588,43.5911724 L38.1271059,47.936 L32.1073412,47.936 L33.1212471,43.5911724 L39.2818588,43.5911724 L39.2818588,43.5911724 Z M24.7369882,49.3842759 L23.9304941,52.8427586 L23.1153176,52.8427586 L22.4361647,49.3842759 L24.7369882,49.3842759 L24.7369882,49.3842759 Z M30.2830824,49.3842759 L29.4756235,52.8427586 L25.4171059,52.8427586 L26.2236,49.3842759 L30.2830824,49.3842759 L30.2830824,49.3842759 Z M37.7412235,49.3842759 L37.7036,49.5252414 L37.6978118,49.505931 L37.5608235,50.0630345 L37.3283294,50.933931 C37.3119294,50.9986207 37.3003529,51.0642759 37.2955294,51.1308966 L36.8729882,52.8427586 L30.9622353,52.8427586 L31.7696941,49.3842759 L37.7412235,49.3842759 L37.7412235,49.3842759 Z"></path>
                                        </g>
                                    </g>
                                </g>
                            </g>
                        </g>
                    </g>
                </g>
            </g>
        </g>
    </g>
</svg>