<?xml version="1.0" encoding="utf-8"?>
<!-- Generator: Adobe Illustrator 19.2.1, SVG Export Plug-In . SVG Version: 6.00 Build 0)  -->
<svg version="1.1" id="Layer_1" xmlns="http://www.w3.org/2000/svg" xmlns:xlink="http://www.w3.org/1999/xlink" x="0px" y="0px"
	 viewBox="0 0 13.1 28.2" style="enable-background:new 0 0 13.1 28.2;" xml:space="preserve">
<style type="text/css">
	.st0{clip-path:url(#SVGID_3_);}
	.st1{clip-path:url(#SVGID_4_);fill:#83C33F;}
	.st2{clip-path:url(#SVGID_7_);}
	.st3{clip-path:url(#SVGID_8_);fill:#83C33F;}
</style>
<g>
	<g>
		<defs>
			<rect id="SVGID_1_" x="-0.9" y="-0.4" width="14" height="29"/>
		</defs>
		<defs>
			<polygon id="SVGID_2_" points="13.1,24.2 0,24.2 0,4.3 12.8,4.3 12.8,7.8 3.8,7.8 3.8,12 10.8,12 10.8,15.5 3.8,15.5 3.8,20.6 
				13.1,20.6 13.1,24.2 13.1,24.2 			"/>
		</defs>
		<clipPath id="SVGID_3_">
			<use xlink:href="#SVGID_1_"  style="overflow:visible;"/>
		</clipPath>
		<clipPath id="SVGID_4_" class="st0">
			<use xlink:href="#SVGID_2_"  style="overflow:visible;"/>
		</clipPath>
		<rect x="-5" y="-0.7" class="st1" width="23.1" height="29.9"/>
	</g>
	<g>
		<defs>
			<rect id="SVGID_5_" x="-0.9" y="-0.4" width="14" height="29"/>
		</defs>
		<defs>
			<path id="SVGID_6_" d="M0,0h3.8v28.2H0V0L0,0z M9.3,0h3.8v28.2H9.3V0L9.3,0z"/>
		</defs>
		<clipPath id="SVGID_7_">
			<use xlink:href="#SVGID_5_"  style="overflow:visible;"/>
		</clipPath>
		<clipPath id="SVGID_8_" class="st2">
			<use xlink:href="#SVGID_6_"  style="overflow:visible;"/>
		</clipPath>
		<rect x="-5" y="-5" class="st3" width="23.1" height="38.2"/>
	</g>
</g>
</svg>
